<svg width="26" height="20" viewBox="0 0 26 20" fill="none" xmlns="http://www.w3.org/2000/svg">
<path d="M9.98077 5.82321H15.5192" stroke="#3D3C3C" stroke-width="1.5" stroke-linecap="round" stroke-linejoin="round"/>
<path d="M24.4731 13.0117L19.4308 1.55399C18.9101 1.03891 18.2074 0.75 17.475 0.75C16.7426 0.75 16.0398 1.03891 15.5192 1.55399V14.5925" stroke="#3D3C3C" stroke-width="1.5" stroke-linecap="round" stroke-linejoin="round"/>
<path d="M9.98076 14.5925V1.55399C9.46015 1.03891 8.75735 0.75 8.02499 0.75C7.29263 0.75 6.58984 1.03891 6.06922 1.55399L1.02692 13.0117" stroke="#3D3C3C" stroke-width="1.5" stroke-linecap="round" stroke-linejoin="round"/>
<path d="M5.36538 19.2078C7.91439 19.2078 9.98077 17.1415 9.98077 14.5925C9.98077 12.0434 7.91439 9.97707 5.36538 9.97707C2.81638 9.97707 0.75 12.0434 0.75 14.5925C0.75 17.1415 2.81638 19.2078 5.36538 19.2078Z" stroke="#3D3C3C" stroke-width="1.5" stroke-linecap="round" stroke-linejoin="round"/>
<path d="M20.1346 19.2078C22.6836 19.2078 24.75 17.1415 24.75 14.5925C24.75 12.0434 22.6836 9.97707 20.1346 9.97707C17.5856 9.97707 15.5192 12.0434 15.5192 14.5925C15.5192 17.1415 17.5856 19.2078 20.1346 19.2078Z" stroke="#3D3C3C" stroke-width="1.5" stroke-linecap="round" stroke-linejoin="round"/>
</svg>
