<svg width="19" height="27" viewBox="0 0 19 27" fill="none" xmlns="http://www.w3.org/2000/svg">
<path d="M13.5 17.75C15.8472 17.75 17.75 15.8472 17.75 13.5C17.75 11.1528 15.8472 9.25 13.5 9.25C11.1528 9.25 9.25 11.1528 9.25 13.5C9.25 15.8472 11.1528 17.75 13.5 17.75Z" stroke="#676767" stroke-width="1.5" stroke-linecap="round" stroke-linejoin="round"/>
<path d="M9.25 9.25V0.75H5C3.87283 0.75 2.79183 1.19777 1.9948 1.9948C1.19777 2.79183 0.75 3.87283 0.75 5C0.75 6.12717 1.19777 7.20817 1.9948 8.0052C2.79183 8.80223 3.87283 9.25 5 9.25H9.25Z" stroke="#676767" stroke-width="1.5" stroke-linecap="round" stroke-linejoin="round"/>
<path d="M9.25 17.75V9.25H5C3.87283 9.25 2.79183 9.69777 1.9948 10.4948C1.19777 11.2918 0.75 12.3728 0.75 13.5C0.75 14.6272 1.19777 15.7082 1.9948 16.5052C2.79183 17.3022 3.87283 17.75 5 17.75H9.25Z" stroke="#676767" stroke-width="1.5" stroke-linecap="round" stroke-linejoin="round"/>
<path d="M9.25 9.25V0.75H13.5C14.6272 0.75 15.7082 1.19777 16.5052 1.9948C17.3022 2.79183 17.75 3.87283 17.75 5C17.75 6.12717 17.3022 7.20817 16.5052 8.0052C15.7082 8.80223 14.6272 9.25 13.5 9.25H9.25Z" stroke="#676767" stroke-width="1.5" stroke-linecap="round" stroke-linejoin="round"/>
<path d="M9.25 17.75V22C9.25 22.8406 9.00074 23.6623 8.53375 24.3612C8.06675 25.0601 7.40299 25.6048 6.62641 25.9265C5.84982 26.2482 4.99529 26.3323 4.17087 26.1683C3.34645 26.0043 2.58917 25.5996 1.9948 25.0052C1.40042 24.4108 0.995652 23.6536 0.831664 22.8291C0.667677 22.0047 0.751841 21.1502 1.07351 20.3736C1.39519 19.597 1.93992 18.9332 2.63883 18.4663C3.33774 17.9993 4.15943 17.75 5 17.75H9.25Z" stroke="#676767" stroke-width="1.5" stroke-linecap="round" stroke-linejoin="round"/>
</svg>
