<svg width="24" height="27" viewBox="0 0 24 27" fill="none" xmlns="http://www.w3.org/2000/svg">
<path d="M6.25 25.75C6.64443 25.7517 7.03528 25.6752 7.4 25.525C7.76473 25.3748 8.0961 25.1539 8.37501 24.875C8.65391 24.5961 8.87483 24.2647 9.02501 23.9C9.17519 23.5353 9.25165 23.1444 9.25 22.75V16.75" stroke="#676767" stroke-width="1.5" stroke-linecap="round" stroke-linejoin="round"/>
<path d="M17.25 25.75C16.8556 25.7517 16.4647 25.6752 16.1 25.525C15.7353 25.3748 15.4039 25.1539 15.125 24.875C14.8461 24.5961 14.6252 24.2647 14.475 23.9C14.3248 23.5353 14.2484 23.1444 14.25 22.75V16.75" stroke="#676767" stroke-width="1.5" stroke-linecap="round" stroke-linejoin="round"/>
<path d="M14.75 16.75H16.75C17.1444 16.7484 17.5353 16.8248 17.9 16.975C18.2647 17.1252 18.5961 17.3461 18.875 17.625C19.1539 17.9039 19.3748 18.2353 19.525 18.6C19.6752 18.9647 19.7517 19.3556 19.75 19.75V20.75C19.7483 21.1445 19.8248 21.5353 19.975 21.9C20.1252 22.2648 20.3461 22.5961 20.625 22.875C20.9039 23.1539 21.2353 23.3749 21.6 23.525C21.9647 23.6752 22.3556 23.7517 22.75 23.75" stroke="#676767" stroke-width="1.5" stroke-linecap="round" stroke-linejoin="round"/>
<path d="M8.75 16.75H6.75C6.35557 16.7484 5.96472 16.8248 5.6 16.975C5.23527 17.1252 4.9039 17.3461 4.62499 17.625C4.34609 17.9039 4.12517 18.2353 3.97499 18.6C3.82481 18.9647 3.74835 19.3556 3.75 19.75V20.75C3.75165 21.1445 3.67519 21.5353 3.52501 21.9C3.37483 22.2648 3.15391 22.5961 2.87501 22.875C2.5961 23.1539 2.26473 23.3749 1.9 23.525C1.53528 23.6752 1.14443 23.7517 0.75 23.75" stroke="#676767" stroke-width="1.5" stroke-linecap="round" stroke-linejoin="round"/>
<path d="M9.725 3.75C9.13752 2.83063 8.32806 2.07394 7.37125 1.54966C6.41443 1.02537 5.34104 0.750374 4.25 0.75C3.76488 1.58972 3.47379 2.52735 3.39809 3.49417C3.32239 4.461 3.46399 5.43251 3.8125 6.3375C3.12901 7.34507 2.75929 8.53252 2.75 9.75V10.75C2.75 12.3413 3.38214 13.8674 4.50736 14.9926C5.63258 16.1179 7.1587 16.75 8.75 16.75H14.75C16.3413 16.75 17.8674 16.1179 18.9926 14.9926C20.1179 13.8674 20.75 12.3413 20.75 10.75V9.75C20.7407 8.53252 20.371 7.34507 19.6875 6.3375C20.036 5.43251 20.1776 4.461 20.1019 3.49417C20.0262 2.52735 19.7351 1.58972 19.25 0.75C18.159 0.750374 17.0856 1.02537 16.1287 1.54966C15.1719 2.07394 14.3625 2.83063 13.775 3.75H9.725Z" stroke="#676767" stroke-width="1.5" stroke-linecap="round" stroke-linejoin="round"/>
</svg>
