<svg width="29" height="26" viewBox="0 0 29 26" fill="none" xmlns="http://www.w3.org/2000/svg">
<path d="M9.75 22.0625C10.682 22.0625 11.4375 22.818 11.4375 23.75C11.4375 24.682 10.682 25.4375 9.75 25.4375C8.81802 25.4375 8.0625 24.682 8.0625 23.75C8.0625 22.818 8.81802 22.0625 9.75 22.0625Z" fill="#3D3C3C" stroke="#3D3C3C" stroke-width="0.125"/>
<path d="M22.75 22.0625C23.682 22.0625 24.4375 22.818 24.4375 23.75C24.4375 24.682 23.682 25.4375 22.75 25.4375C21.818 25.4375 21.0625 24.682 21.0625 23.75C21.0625 22.818 21.818 22.0625 22.75 22.0625Z" fill="#3D3C3C" stroke="#3D3C3C" stroke-width="0.125"/>
<path d="M5.0375 5.75H27.4625L24.1625 17.3C24.0448 17.7192 23.7926 18.0881 23.4448 18.3501C23.0971 18.612 22.6729 18.7525 22.2375 18.75H10.2625C9.82711 18.7525 9.40293 18.612 9.05515 18.3501C8.70738 18.0881 8.45524 17.7192 8.3375 17.3L3.8125 1.475C3.7527 1.26594 3.6264 1.08207 3.45271 0.951246C3.27903 0.820421 3.06744 0.749771 2.85 0.750001H0.75" stroke="#3D3C3C" stroke-width="1.5" stroke-linecap="round" stroke-linejoin="round"/>
</svg>
