<svg width="18" height="18" viewBox="0 0 18 18" fill="none" xmlns="http://www.w3.org/2000/svg">
<path d="M9.27453 12.5203L7.85766 16.365C7.81573 16.478 7.74022 16.5754 7.64128 16.6442C7.54234 16.7131 7.42471 16.7499 7.3042 16.7499C7.18369 16.7499 7.06606 16.7131 6.96712 16.6442C6.86818 16.5754 6.79267 16.478 6.75074 16.365L5.33387 12.5203C5.30397 12.4391 5.25681 12.3654 5.19566 12.3043C5.1345 12.2431 5.0608 12.196 4.97965 12.1661L1.13492 10.7492C1.02194 10.7073 0.924502 10.6318 0.855692 10.5328C0.786882 10.4339 0.75 10.3163 0.75 10.1957C0.75 10.0752 0.786882 9.9576 0.855692 9.85866C0.924502 9.75972 1.02194 9.68421 1.13492 9.64228L4.97965 8.22541C5.0608 8.19551 5.1345 8.14835 5.19566 8.0872C5.25681 8.02604 5.30397 7.95234 5.33387 7.87119L6.75074 4.02646C6.79267 3.91348 6.86818 3.81604 6.96712 3.74723C7.06606 3.67842 7.18369 3.64154 7.3042 3.64154C7.42471 3.64154 7.54234 3.67842 7.64128 3.74723C7.74022 3.81604 7.81573 3.91348 7.85766 4.02646L9.27453 7.87119C9.30443 7.95234 9.35159 8.02604 9.41274 8.0872C9.4739 8.14835 9.54759 8.19551 9.62875 8.22541L13.4735 9.64228C13.5865 9.68421 13.6839 9.75972 13.7527 9.85866C13.8215 9.9576 13.8584 10.0752 13.8584 10.1957C13.8584 10.3163 13.8215 10.4339 13.7527 10.5328C13.6839 10.6318 13.5865 10.7073 13.4735 10.7492L9.62875 12.1661C9.54759 12.196 9.4739 12.2431 9.41274 12.3043C9.35159 12.3654 9.30443 12.4391 9.27453 12.5203V12.5203Z" stroke="#676767" stroke-width="1.5" stroke-linecap="round" stroke-linejoin="round"/>
<path d="M12.0271 0.75V4.29217" stroke="#676767" stroke-width="1.5" stroke-linecap="round" stroke-linejoin="round"/>
<path d="M13.7982 2.52106H10.256" stroke="#676767" stroke-width="1.5" stroke-linecap="round" stroke-linejoin="round"/>
<path d="M15.5693 4.88251V7.24395" stroke="#676767" stroke-width="1.5" stroke-linecap="round" stroke-linejoin="round"/>
<path d="M16.75 6.06323H14.3885" stroke="#676767" stroke-width="1.5" stroke-linecap="round" stroke-linejoin="round"/>
</svg>
